TITLE ""
FILE "2Q_t_1018-1034.mp3" MP3
  TRACK 01 AUDIO
    TITLE "2Q_t_1018-1034_01"
    INDEX 01 00:00:00
  TRACK 02 AUDIO
    TITLE "2Q_t_1018-1034_02"
    INDEX 01 00:00:12
  TRACK 03 AUDIO
    TITLE "2Q_t_1018-1034_03"
    INDEX 01 00:01:43
  TRACK 04 AUDIO
    TITLE "2Q_t_1018-1034_04"
    INDEX 01 00:02:13
  TRACK 05 AUDIO
    TITLE "2Q_t_1018-1034_05"
    INDEX 01 00:03:56
  TRACK 06 AUDIO
    TITLE "2Q_t_1018-1034_06"
    INDEX 01 00:04:24
  TRACK 07 AUDIO
    TITLE "2Q_t_1018-1034_07"
    INDEX 01 00:05:23
  TRACK 08 AUDIO
    TITLE "2Q_t_1018-1034_08"
    INDEX 01 00:05:70
  TRACK 09 AUDIO
    TITLE "2Q_t_1018-1034_09"
    INDEX 01 00:07:42
  TRACK 10 AUDIO
    TITLE "2Q_t_1018-1034_10"
    INDEX 01 00:08:12
  TRACK 11 AUDIO
    TITLE "2Q_t_1018-1034_11"
    INDEX 01 00:09:19
  TRACK 12 AUDIO
    TITLE "2Q_t_1018-1034_12"
    INDEX 01 00:09:62
  TRACK 13 AUDIO
    TITLE "2Q_t_1018-1034_13"
    INDEX 01 00:11:22
  TRACK 14 AUDIO
    TITLE "2Q_t_1018-1034_14"
    INDEX 01 00:12:00
  TRACK 15 AUDIO
    TITLE "2Q_t_1018-1034_15"
    INDEX 01 00:15:31
  TRACK 16 AUDIO
    TITLE "2Q_t_1018-1034_16"
    INDEX 01 00:16:00
  TRACK 17 AUDIO
    TITLE "2Q_t_1018-1034_17"
    INDEX 01 00:17:40
  TRACK 18 AUDIO
    TITLE "2Q_t_1018-1034_18"
    INDEX 01 00:18:12
  TRACK 19 AUDIO
    TITLE "2Q_t_1018-1034_19"
    INDEX 01 00:20:38
  TRACK 20 AUDIO
    TITLE "2Q_t_1018-1034_20"
    INDEX 01 00:21:10
  TRACK 21 AUDIO
    TITLE "2Q_t_1018-1034_21"
    INDEX 01 00:22:12
  TRACK 22 AUDIO
    TITLE "2Q_t_1018-1034_22"
    INDEX 01 00:22:73
  TRACK 23 AUDIO
    TITLE "2Q_t_1018-1034_23"
    INDEX 01 00:25:10
  TRACK 24 AUDIO
    TITLE "2Q_t_1018-1034_24"
    INDEX 01 00:25:55
  TRACK 25 AUDIO
    TITLE "2Q_t_1018-1034_25"
    INDEX 01 00:26:59
  TRACK 26 AUDIO
    TITLE "2Q_t_1018-1034_26"
    INDEX 01 00:27:37
  TRACK 27 AUDIO
    TITLE "2Q_t_1018-1034_27"
    INDEX 01 00:29:57
  TRACK 28 AUDIO
    TITLE "2Q_t_1018-1034_28"
    INDEX 01 00:30:27
  TRACK 29 AUDIO
    TITLE "2Q_t_1018-1034_29"
    INDEX 01 00:31:58
  TRACK 30 AUDIO
    TITLE "2Q_t_1018-1034_30"
    INDEX 01 00:32:32
  TRACK 31 AUDIO
    TITLE "2Q_t_1018-1034_31"
    INDEX 01 00:34:39
  TRACK 32 AUDIO
    TITLE "2Q_t_1018-1034_32"
    INDEX 01 00:35:07
  TRACK 33 AUDIO
    TITLE "2Q_t_1018-1034_33"
    INDEX 01 00:36:14
  TRACK 34 AUDIO
    TITLE "2Q_t_1018-1034_34"
    INDEX 01 00:36:61
  TRACK 35 AUDIO
    TITLE "2Q_t_1018-1034_35"
    INDEX 01 00:39:26
  TRACK 36 AUDIO
    TITLE "2Q_t_1018-1034_36"
    INDEX 01 00:39:71
  TRACK 37 AUDIO
    TITLE "2Q_t_1018-1034_37"
    INDEX 01 00:41:09
  TRACK 38 AUDIO
    TITLE "2Q_t_1018-1034_38"
    INDEX 01 00:41:54
  TRACK 39 AUDIO
    TITLE "2Q_t_1018-1034_39"
    INDEX 01 00:44:12
  TRACK 40 AUDIO
    TITLE "2Q_t_1018-1034_40"
    INDEX 01 00:44:55
  TRACK 41 AUDIO
    TITLE "2Q_t_1018-1034_41"
    INDEX 01 00:46:12
  TRACK 42 AUDIO
    TITLE "2Q_t_1018-1034_42"
    INDEX 01 00:46:59
  TRACK 43 AUDIO
    TITLE "2Q_t_1018-1034_43"
    INDEX 01 00:48:05
  TRACK 44 AUDIO
    TITLE "2Q_t_1018-1034_44"
    INDEX 01 00:48:50
  TRACK 45 AUDIO
    TITLE "2Q_t_1018-1034_45"
    INDEX 01 00:49:66
  TRACK 46 AUDIO
    TITLE "2Q_t_1018-1034_46"
    INDEX 01 00:50:42
  TRACK 47 AUDIO
    TITLE "2Q_t_1018-1034_47"
    INDEX 01 00:51:33
  TRACK 48 AUDIO
    TITLE "2Q_t_1018-1034_48"
    INDEX 01 00:52:01
  TRACK 49 AUDIO
    TITLE "2Q_t_1018-1034_49"
    INDEX 01 00:53:24
  TRACK 50 AUDIO
    TITLE "2Q_t_1018-1034_50"
    INDEX 01 00:54:00
  TRACK 51 AUDIO
    TITLE "2Q_t_1018-1034_51"
    INDEX 01 00:55:70
  TRACK 52 AUDIO
    TITLE "2Q_t_1018-1034_52"
    INDEX 01 00:56:40
  TRACK 53 AUDIO
    TITLE "2Q_t_1018-1034_53"
    INDEX 01 00:57:61
  TRACK 54 AUDIO
    TITLE "2Q_t_1018-1034_54"
    INDEX 01 00:58:37
  TRACK 55 AUDIO
    TITLE "2Q_t_1018-1034_55"
    INDEX 01 01:01:69
  TRACK 56 AUDIO
    TITLE "2Q_t_1018-1034_56"
    INDEX 01 01:02:39
  TRACK 57 AUDIO
    TITLE "2Q_t_1018-1034_57"
    INDEX 01 01:03:44
  TRACK 58 AUDIO
    TITLE "2Q_t_1018-1034_58"
    INDEX 01 01:04:28
  TRACK 59 AUDIO
    TITLE "2Q_t_1018-1034_59"
    INDEX 01 01:06:58
  TRACK 60 AUDIO
    TITLE "2Q_t_1018-1034_60"
    INDEX 01 01:07:28
  TRACK 61 AUDIO
    TITLE "2Q_t_1018-1034_61"
    INDEX 01 01:08:37
  TRACK 62 AUDIO
    TITLE "2Q_t_1018-1034_62"
    INDEX 01 01:09:29
  TRACK 63 AUDIO
    TITLE "2Q_t_1018-1034_63"
    INDEX 01 01:11:71
  TRACK 64 AUDIO
    TITLE "2Q_t_1018-1034_64"
    INDEX 01 01:12:41
  TRACK 65 AUDIO
    TITLE "2Q_t_1018-1034_65"
    INDEX 01 01:14:17
  TRACK 66 AUDIO
    TITLE "2Q_t_1018-1034_66"
    INDEX 01 01:14:64
  TRACK 67 AUDIO
    TITLE "2Q_t_1018-1034_67"
    INDEX 01 01:17:34
  TRACK 68 AUDIO
    TITLE "2Q_t_1018-1034_68"
    INDEX 01 01:18:03
  TRACK 69 AUDIO
    TITLE "2Q_t_1018-1034_69"
    INDEX 01 01:19:31
  TRACK 70 AUDIO
    TITLE "2Q_t_1018-1034_70"
    INDEX 01 01:20:03
  TRACK 71 AUDIO
    TITLE "2Q_t_1018-1034_71"
    INDEX 01 01:22:26
